<svg xmlns="http://www.w3.org/2000/svg" viewBox="0 0 64 64"><defs><style>.cls-1{fill:#272835;}</style></defs><title>9-Email Support</title><g id="_9-Email_Support" data-name="9-Email Support"><path class="cls-1" d="M64,27a1,1,0,0,0-.35-.77L57,20.66V6a1,1,0,0,0-1-1H38.32L32.64.23a1,1,0,0,0-1.29,0L25.67,5H8A1,1,0,0,0,7,6V20.66L.36,26.23A1,1,0,0,0,0,27H0V63a1,1,0,0,0,1,1H63a1,1,0,0,0,1-1V27Zm-7-3.73,4.27,3.58L57,29.33Zm-25-21L35.21,5H28.79ZM9,7H55V30.49L32,43.84,9,30.49ZM7,23.27v6.05L2.73,26.85ZM2,28.74l20.15,11.7L2,60.59ZM3.41,62,23.94,41.48l7.56,4.39a1,1,0,0,0,1,0l7.56-4.39L60.59,62ZM62,60.59,41.85,40.44,62,28.74Z"/><path class="cls-1" d="M46,24A14,14,0,1,0,32,38,14,14,0,0,0,46,24ZM20,24A12,12,0,1,1,32,36,12,12,0,0,1,20,24Z"/><path class="cls-1" d="M11,10v4h2V11h3V9H12A1,1,0,0,0,11,10Z"/><rect class="cls-1" x="11" y="16" width="2" height="2"/><path class="cls-1" d="M36,21a4,4,0,0,1-4,4,2,2,0,0,0-2,2v2h2V27a6,6,0,1,0-6-6h2a4,4,0,0,1,8,0Z"/><rect class="cls-1" x="30" y="31" width="2" height="2"/></g></svg>