<svg xmlns="http://www.w3.org/2000/svg" xmlns:xlink="http://www.w3.org/1999/xlink" width="1382" zoomAndPan="magnify" viewBox="0 0 1036.5 543.000006" height="724" preserveAspectRatio="xMidYMid meet" version="1.0"><defs><g/><clipPath id="83ce085041"><path d="M 0.703125 0 L 1035.296875 0 L 1035.296875 542 L 0.703125 542 Z M 0.703125 0 " clip-rule="nonzero"/></clipPath></defs><g clip-path="url(#83ce085041)"><path fill="#ffffff" d="M 0.703125 0 L 1035.296875 0 L 1035.296875 542 L 0.703125 542 Z M 0.703125 0 " fill-opacity="1" fill-rule="nonzero"/><path fill="#ffffff" d="M 0.703125 0 L 1035.296875 0 L 1035.296875 542 L 0.703125 542 Z M 0.703125 0 " fill-opacity="1" fill-rule="nonzero"/></g><g fill="#4f0202" fill-opacity="1"><g transform="translate(238.862569, 401.005631)"><g><path d="M -88.984375 117.125 C -91.460938 117.125 -92.703125 115.609375 -92.703125 112.578125 C -92.703125 111.609375 -92.664062 110.675781 -92.59375 109.78125 C -92.53125 108.882812 -92.429688 108.09375 -92.296875 107.40625 L -92.09375 106.578125 C -91.539062 104.085938 -90.882812 101.632812 -90.125 99.21875 C -89.363281 96.8125 -88.5 94.503906 -87.53125 92.296875 L -85.265625 86.921875 C -82.359375 78.773438 -78.628906 69.492188 -74.078125 59.078125 C -69.523438 48.660156 -64.078125 37.109375 -57.734375 24.421875 C -44.347656 -2.203125 -29.304688 -30.519531 -12.609375 -60.53125 C 4.078125 -90.539062 22.488281 -122.238281 42.625 -155.625 C 43.320312 -157 44.082031 -158.34375 44.90625 -159.65625 C 45.726562 -160.96875 46.554688 -162.3125 47.390625 -163.6875 C 56.628906 -179.28125 66.007812 -194.765625 75.53125 -210.140625 C 85.050781 -225.523438 94.847656 -240.738281 104.921875 -255.78125 C 119.128906 -277.300781 132.785156 -297.578125 145.890625 -316.609375 C 158.992188 -335.648438 171.550781 -353.3125 183.5625 -369.59375 C 196.53125 -387.53125 207.492188 -396.5 216.453125 -396.5 C 217.421875 -396.5 218.316406 -396.394531 219.140625 -396.1875 C 219.972656 -395.976562 220.875 -395.738281 221.84375 -395.46875 C 226.664062 -392.707031 229.078125 -388.148438 229.078125 -381.796875 C 229.078125 -374.210938 225.628906 -370.421875 218.734375 -370.421875 C 216.253906 -370.703125 214.253906 -371.664062 212.734375 -373.3125 C 204.179688 -366 189.347656 -347.859375 168.234375 -318.890625 C 133.609375 -271.566406 95.671875 -214.796875 54.421875 -148.578125 C 33.867188 -115.609375 15.003906 -84.328125 -2.171875 -54.734375 C -19.347656 -25.140625 -34.765625 2.757812 -48.421875 28.96875 C -65.523438 62.082031 -75.457031 83.953125 -78.21875 94.578125 C -81.945312 109.609375 -85.535156 117.125 -88.984375 117.125 Z M -88.984375 117.125 "/></g></g></g><g fill="#4f0202" fill-opacity="1"><g transform="translate(303.625729, 401.005631)"><g><path d="M -12.421875 -24.625 C -14.078125 -24.625 -15.800781 -24.96875 -17.59375 -25.65625 C -21.039062 -27.863281 -22.765625 -30.691406 -22.765625 -34.140625 C -22.765625 -37.867188 -21.453125 -42.5625 -18.828125 -48.21875 C -15.242188 -55.945312 -10.484375 -64.640625 -4.546875 -74.296875 C 1.378906 -83.953125 8.484375 -94.4375 16.765625 -105.75 L 32.90625 -128.71875 C 34.832031 -131.195312 37.175781 -132.4375 39.9375 -132.4375 C 41.457031 -132.4375 43.113281 -131.882812 44.90625 -130.78125 C 47.25 -129.269531 48.421875 -126.992188 48.421875 -123.953125 C 48.421875 -120.640625 46.628906 -117.46875 43.046875 -114.4375 C 41.390625 -113.0625 37.800781 -109.0625 32.28125 -102.4375 C 13.519531 -80.78125 -0.550781 -61.328125 -9.9375 -44.078125 C -12.28125 -39.109375 -13.453125 -36.003906 -13.453125 -34.765625 C -13.453125 -33.796875 -13.035156 -33.3125 -12.203125 -33.3125 C -9.859375 -33.3125 -5.03125 -35.3125 2.28125 -39.3125 C 20.351562 -48.96875 43.253906 -64.285156 70.984375 -85.265625 C 79.804688 -91.878906 87.007812 -97.117188 92.59375 -100.984375 C 98.1875 -104.847656 102.085938 -107.332031 104.296875 -108.4375 C 108.710938 -110.78125 112.988281 -111.953125 117.125 -111.953125 C 121.40625 -111.679688 124.648438 -109.40625 126.859375 -105.125 C 127.816406 -103.050781 128.296875 -100.707031 128.296875 -98.09375 C 128.296875 -92.289062 124.914062 -85.390625 118.15625 -77.390625 C 101.738281 -56.421875 93.53125 -43.175781 93.53125 -37.65625 C 93.53125 -35.726562 94.910156 -34.628906 97.671875 -34.359375 C 100.847656 -34.628906 103.988281 -35.144531 107.09375 -35.90625 C 110.195312 -36.664062 113.265625 -37.523438 116.296875 -38.484375 C 130.648438 -43.585938 144.757812 -49.3125 158.625 -55.65625 C 172.488281 -62.007812 186.109375 -68.976562 199.484375 -76.5625 L 217.28125 -87.125 C 218.113281 -87.539062 219.015625 -87.75 219.984375 -87.75 C 220.390625 -87.75 220.800781 -87.675781 221.21875 -87.53125 C 221.90625 -87.257812 222.523438 -86.78125 223.078125 -86.09375 C 223.765625 -84.988281 224.109375 -84.160156 224.109375 -83.609375 C 224.109375 -82.085938 223.421875 -80.84375 222.046875 -79.875 L 203.625 -69.125 C 185.96875 -59.320312 169.6875 -51.003906 154.78125 -44.171875 C 139.882812 -37.347656 126.300781 -32.070312 114.03125 -28.34375 L 113.609375 -28.140625 C 107.679688 -26.078125 102.4375 -25.046875 97.875 -25.046875 C 88.5 -25.046875 83.8125 -29.179688 83.8125 -37.453125 C 83.8125 -38.691406 83.945312 -39.929688 84.21875 -41.171875 C 84.5 -42.421875 84.914062 -43.597656 85.46875 -44.703125 L 88.984375 -50.703125 C 91.742188 -54.835938 94.847656 -59.800781 98.296875 -65.59375 C 105.054688 -76.90625 108.4375 -84.5625 108.4375 -88.5625 C 108.4375 -89.664062 108.160156 -90.492188 107.609375 -91.046875 L 107.1875 -91.046875 C 105.539062 -91.046875 102.234375 -89.671875 97.265625 -86.921875 C 91.328125 -83.878906 85.460938 -80.597656 79.671875 -77.078125 C 73.878906 -73.566406 68.082031 -69.945312 62.28125 -66.21875 C 50.144531 -58.351562 39.421875 -51.554688 30.109375 -45.828125 C 20.796875 -40.109375 12.898438 -35.457031 6.421875 -31.875 L 4.96875 -31.046875 C -2.207031 -26.765625 -8.003906 -24.625 -12.421875 -24.625 Z M -12.421875 -24.625 "/></g></g></g><g fill="#4f0202" fill-opacity="1"><g transform="translate(519.227048, 401.005631)"><g><path d="M -55.046875 11.375 C -58.222656 11.375 -59.8125 9.722656 -59.8125 6.421875 C -59.8125 3.796875 -57.394531 -1.304688 -52.5625 -8.890625 C -46.90625 -17.453125 -38.695312 -29.21875 -27.9375 -44.1875 C -17.175781 -59.15625 -3.863281 -77.46875 12 -99.125 C 14.34375 -102.300781 16.34375 -104.957031 18 -107.09375 C 19.65625 -109.226562 20.828125 -110.847656 21.515625 -111.953125 C 27.171875 -120.921875 32 -125.40625 36 -125.40625 C 36.96875 -125.40625 38.070312 -125.128906 39.3125 -124.578125 C 42.90625 -123.335938 44.703125 -120.644531 44.703125 -116.5 L 44.28125 -113.609375 C 43.875 -111.535156 39.941406 -105.945312 32.484375 -96.84375 C 15.796875 -76.5625 2.550781 -61.039062 -7.25 -50.28125 C -18.5625 -37.457031 -30.21875 -23.113281 -42.21875 -7.25 C -41.113281 -8.070312 -38.734375 -10.140625 -35.078125 -13.453125 C -31.421875 -16.765625 -26.488281 -21.316406 -20.28125 -27.109375 C -10.070312 -36.898438 1.203125 -47.347656 13.546875 -58.453125 C 25.898438 -69.566406 39.390625 -81.332031 54.015625 -93.75 L 57.734375 -96.84375 C 65.734375 -104.707031 74.976562 -110.914062 85.46875 -115.46875 C 87.8125 -116.15625 89.671875 -116.5 91.046875 -116.5 C 94.773438 -116.5 97.742188 -115.050781 99.953125 -112.15625 C 102.429688 -109.257812 103.671875 -105.742188 103.671875 -101.609375 C 103.671875 -98.847656 102.984375 -96.15625 101.609375 -93.53125 C 100.367188 -90.632812 99.75 -88.429688 99.75 -86.921875 C 99.75 -84.296875 101.265625 -82.289062 104.296875 -80.90625 C 107.191406 -79.53125 112.988281 -78.84375 121.6875 -78.84375 C 128.164062 -78.84375 134.71875 -79.460938 141.34375 -80.703125 L 142.375 -80.90625 C 144.851562 -81.320312 147.644531 -81.835938 150.75 -82.453125 C 153.851562 -83.078125 157.335938 -83.738281 161.203125 -84.4375 L 162.234375 -84.640625 C 162.929688 -84.640625 163.832031 -84.296875 164.9375 -83.609375 C 166.039062 -82.910156 166.59375 -81.734375 166.59375 -80.078125 C 166.59375 -79.390625 166.242188 -78.492188 165.546875 -77.390625 C 164.992188 -76.429688 163.890625 -75.953125 162.234375 -75.953125 L 157.484375 -75.734375 C 151.546875 -75.597656 144.851562 -74.976562 137.40625 -73.875 C 134.09375 -73.320312 130.675781 -72.90625 127.15625 -72.625 C 123.644531 -72.351562 120.023438 -72.21875 116.296875 -72.21875 C 115.609375 -72.21875 114.398438 -72.21875 112.671875 -72.21875 C 110.953125 -72.21875 108.78125 -72.21875 106.15625 -72.21875 C 100.632812 -72.5 95.460938 -75.535156 90.640625 -81.328125 C 88.984375 -84.085938 88.15625 -87.050781 88.15625 -90.21875 C 88.15625 -92.019531 88.429688 -93.75 88.984375 -95.40625 C 89.804688 -98.15625 90.21875 -99.878906 90.21875 -100.578125 C 90.21875 -102.503906 89.253906 -103.46875 87.328125 -103.46875 C 83.460938 -103.46875 75.597656 -99.328125 63.734375 -91.046875 C 58.492188 -87.191406 52.800781 -82.8125 46.65625 -77.90625 C 40.519531 -73.007812 34.003906 -67.457031 27.109375 -61.25 C 20.898438 -55.875 14.242188 -49.941406 7.140625 -43.453125 C 0.0351562 -36.972656 -7.445312 -29.867188 -15.3125 -22.140625 C -21.25 -16.210938 -27.25 -10.421875 -33.3125 -4.765625 C -33.3125 -4.210938 -37.3125 -0.625 -45.3125 6 L -46.140625 6.625 C -49.734375 9.789062 -52.703125 11.375 -55.046875 11.375 Z M -55.046875 11.375 "/></g></g></g><g fill="#4f0202" fill-opacity="1"><g transform="translate(681.652228, 401.005631)"><g><path d="M 3.109375 -17.390625 L 0.828125 -17.390625 C -12.003906 -17.390625 -20.078125 -21.734375 -23.390625 -30.421875 C -24.210938 -33.179688 -24.625 -35.941406 -24.625 -38.703125 C -24.625 -46.285156 -21.175781 -54.972656 -14.28125 -64.765625 C 5.03125 -91.953125 26.414062 -112.097656 49.875 -125.203125 C 57.875 -129.890625 66.632812 -132.367188 76.15625 -132.640625 C 80.976562 -132.640625 85.597656 -131.265625 90.015625 -128.515625 C 96.085938 -124.367188 99.125 -119.265625 99.125 -113.203125 C 99.125 -107.953125 96.503906 -103.257812 91.265625 -99.125 C 86.160156 -95.257812 80.640625 -92.15625 74.703125 -89.8125 C 58.703125 -83.46875 41.664062 -78.363281 23.59375 -74.5 C 12.414062 -71.738281 5.929688 -70.289062 4.140625 -70.15625 C -2.203125 -62.976562 -7.097656 -55.941406 -10.546875 -49.046875 C -12.898438 -44.910156 -14.078125 -40.976562 -14.078125 -37.25 C -14.078125 -33.9375 -12.144531 -31.242188 -8.28125 -29.171875 C -6.625 -28.617188 -4.894531 -28.132812 -3.09375 -27.71875 C -1.300781 -27.3125 0.488281 -27.109375 2.28125 -27.109375 C 9.445312 -27.109375 15.304688 -27.867188 19.859375 -29.390625 C 27.867188 -30.898438 35.703125 -32.828125 43.359375 -35.171875 C 51.015625 -37.523438 58.632812 -40.285156 66.21875 -43.453125 C 73.53125 -46.492188 82.015625 -50.046875 91.671875 -54.109375 C 101.328125 -58.179688 112.15625 -62.769531 124.15625 -67.875 L 165.546875 -85.46875 L 167.203125 -85.875 C 167.753906 -85.875 168.445312 -85.671875 169.28125 -85.265625 C 170.789062 -84.429688 171.546875 -83.117188 171.546875 -81.328125 C 171.546875 -79.671875 170.648438 -78.359375 168.859375 -77.390625 C 166.648438 -76.835938 144.367188 -67.390625 102.015625 -49.046875 C 93.328125 -45.179688 85.429688 -41.726562 78.328125 -38.6875 C 71.222656 -35.65625 64.910156 -33.035156 59.390625 -30.828125 C 39.941406 -22.691406 21.179688 -18.210938 3.109375 -17.390625 Z M 14.6875 -80.703125 C 34.007812 -84.703125 52.15625 -90.359375 69.125 -97.671875 C 71.875 -98.773438 74.179688 -99.773438 76.046875 -100.671875 C 77.910156 -101.566406 79.394531 -102.363281 80.5 -103.0625 C 83.8125 -105.125 85.46875 -107.601562 85.46875 -110.5 C 85.46875 -114.363281 82.707031 -116.296875 77.1875 -116.296875 C 74.5625 -116.296875 72.078125 -115.953125 69.734375 -115.265625 C 61.460938 -112.785156 53.394531 -109.128906 45.53125 -104.296875 C 39.59375 -100.566406 34.070312 -96.738281 28.96875 -92.8125 C 23.863281 -88.882812 19.101562 -84.847656 14.6875 -80.703125 Z M 14.6875 -80.703125 "/></g></g></g></svg>