<?xml version="1.0" encoding="utf-8"?>
<!-- Generator: Adobe Illustrator 23.1.0, SVG Export Plug-In . SVG Version: 6.00 Build 0)  -->
<svg version="1.1" id="Capa_1" xmlns="http://www.w3.org/2000/svg" xmlns:xlink="http://www.w3.org/1999/xlink" x="0px" y="0px"
	 viewBox="0 0 1200 1200" enable-background="new 0 0 1200 1200" xml:space="preserve">
<g>
	<path fill="#231F20" d="M710.249,915.207h-44.231c15.192,59.311,54.555,114.621,127.971,119.919
		c107.774,7.778,162.216-63.331,143.328-139.995s-114.44-65.553-114.44-65.553c39.999,62.22,7.777,106.662-28.888,112.218
		c-21.824,3.307-48.734-1.705-63.215-29.465c-0.662,0.19-1.301,0.416-1.975,0.587C722.813,914.437,716.572,915.207,710.249,915.207z
		"/>
	<path fill="#231F20" d="M908.429,508.478c-135.205,26.895-196.69,124.649-225.226,210.813
		c-5.442,20.891-9.941,41.829-13.535,62.434h40.581c8.257,0,16.197,1.259,23.599,3.74c0.366,0.123,0.709,0.277,1.071,0.405
		c43.437-88.352,189.359-132.22,237.953-70.734c54.443,68.886,18.888,127.773,18.888,127.773s102.219-8.888,145.551-96.663
		C1180.642,658.473,1115.089,467.369,908.429,508.478z"/>
	<path fill="#231F20" d="M489.75,781.726h40.582c-3.593-20.603-8.092-41.54-13.534-62.43
		c-28.536-86.166-90.021-183.922-225.228-210.818C84.911,467.369,19.358,658.473,62.69,746.248
		c43.332,87.775,145.55,96.663,145.55,96.663s-35.554-58.887,18.888-127.773c48.7-61.62,195.151-17.427,238.235,71.31
		c0.04-0.016,0.078-0.036,0.118-0.052C473.301,783.297,481.466,781.726,489.75,781.726z"/>
	<path fill="#231F20" d="M470.673,912.485c-0.444-0.13-0.865-0.3-1.304-0.438c-14.445,28.008-41.461,33.068-63.358,29.75
		c-36.665-5.556-68.887-49.998-28.888-112.218c0,0-95.552-11.111-114.44,65.553c-18.888,76.664,35.554,147.773,143.328,139.995
		c73.415-5.298,112.779-60.609,127.971-119.919H489.75C483.27,915.207,476.851,914.291,470.673,912.485z"/>
	<path fill="#231F20" d="M728.373,801.794c-5.393-1.808-11.42-2.847-18.124-2.847h-43.408h-28.703
		c3.925-26.083,9.397-52.918,16.362-79.656c15.721-60.351,39.107-120.193,69.9-169.704
		c75.553-121.477,13.333-235.547-11.851-271.101C687.792,243.535,600.001,51.914,600.001,51.914s-87.792,191.62-112.55,226.572
		c-25.184,35.554-87.404,149.624-11.851,271.101c30.794,49.512,54.18,109.356,69.901,169.708
		c6.964,26.736,12.436,53.57,16.362,79.651H533.16h-43.41c-6.285,0-12.338,1.245-17.923,3.458
		c-17.542,6.953-30.356,23.67-30.356,43.09v5.942c0,20.901,14.095,38.686,34.035,44.518c3.364,0.984,6.891,1.634,10.546,1.898
		c1.218,0.088,2.451,0.133,3.697,0.133h47.973h28.703h2.871c-0.234,21.06-1.808,40.492-4.812,57.514c0,0-26.666,7.407-34.073,53.332
		s-37.036,54.813-37.036,54.813s10.101,2.786,22.531,2.786c13.209,0,29.049-3.144,38.208-16.119c0,0-1.481,25.185,19.259,51.85
		c19.4,24.942,25.835,43.396,26.586,45.679v0.246c0,0,0.025-0.078,0.04-0.123c0.015,0.046,0.039,0.123,0.039,0.123v-0.246
		c0.752-2.283,7.188-20.737,26.586-45.679c20.74-26.666,19.259-51.85,19.259-51.85c9.158,12.974,25,16.119,38.208,16.119
		c12.432,0,22.53-2.786,22.53-2.786s-29.628-8.889-37.035-54.813c-7.408-45.924-34.073-53.332-34.073-53.332
		c-3.004-17.022-4.578-36.454-4.812-57.514h2.87h28.703h47.972c5.154,0,9.911-0.643,14.313-1.76
		c21.655-5.496,33.965-23.512,33.965-44.788v-5.942C758.528,825.453,747.818,808.314,728.373,801.794z"/>
</g>
</svg>
