<svg xmlns="http://www.w3.org/2000/svg" xmlns:xlink="http://www.w3.org/1999/xlink" width="1382" zoomAndPan="magnify" viewBox="0 0 1036.5 543.000006" height="724" preserveAspectRatio="xMidYMid meet" version="1.0"><defs><g/></defs><g fill="#4f0202" fill-opacity="1"><g transform="translate(279.634503, 331.490829)"><g><path d="M -64.390625 84.75 C -66.179688 84.75 -67.078125 83.648438 -67.078125 81.453125 C -67.078125 80.753906 -67.050781 80.078125 -67 79.421875 C -66.957031 78.773438 -66.882812 78.207031 -66.78125 77.71875 L -66.625 77.109375 C -66.226562 75.316406 -65.753906 73.546875 -65.203125 71.796875 C -64.660156 70.046875 -64.039062 68.375 -63.34375 66.78125 L -61.6875 62.890625 C -59.59375 56.992188 -56.894531 50.273438 -53.59375 42.734375 C -50.300781 35.203125 -46.363281 26.847656 -41.78125 17.671875 C -32.09375 -1.597656 -21.207031 -22.085938 -9.125 -43.796875 C 2.945312 -65.503906 16.269531 -88.4375 30.84375 -112.59375 C 31.34375 -113.59375 31.890625 -114.566406 32.484375 -115.515625 C 33.085938 -116.460938 33.691406 -117.4375 34.296875 -118.4375 C 40.984375 -129.71875 47.769531 -140.921875 54.65625 -152.046875 C 61.539062 -163.179688 68.628906 -174.191406 75.921875 -185.078125 C 86.203125 -200.648438 96.082031 -215.320312 105.5625 -229.09375 C 115.039062 -242.863281 124.125 -255.640625 132.8125 -267.421875 C 142.195312 -280.398438 150.132812 -286.890625 156.625 -286.890625 C 157.320312 -286.890625 157.96875 -286.8125 158.5625 -286.65625 C 159.164062 -286.507812 159.816406 -286.335938 160.515625 -286.140625 C 164.003906 -284.140625 165.75 -280.847656 165.75 -276.265625 C 165.75 -270.773438 163.253906 -268.03125 158.265625 -268.03125 C 156.472656 -268.226562 155.023438 -268.925781 153.921875 -270.125 C 147.734375 -264.832031 137.003906 -251.703125 121.734375 -230.734375 C 96.679688 -196.492188 69.226562 -155.421875 39.375 -107.515625 C 24.5 -83.648438 10.847656 -61.007812 -1.578125 -39.59375 C -14.003906 -18.1875 -25.15625 2 -35.03125 20.96875 C -47.414062 44.925781 -54.601562 60.742188 -56.59375 68.421875 C -59.289062 79.304688 -61.890625 84.75 -64.390625 84.75 Z M -64.390625 84.75 "/></g></g></g><g fill="#4f0202" fill-opacity="1"><g transform="translate(326.495611, 331.490829)"><g><path d="M -8.984375 -17.8125 C -10.179688 -17.8125 -11.429688 -18.0625 -12.734375 -18.5625 C -15.222656 -20.164062 -16.46875 -22.210938 -16.46875 -24.703125 C -16.46875 -27.398438 -15.519531 -30.796875 -13.625 -34.890625 C -11.03125 -40.472656 -7.585938 -46.757812 -3.296875 -53.75 C 0.992188 -60.738281 6.132812 -68.328125 12.125 -76.515625 L 23.8125 -93.140625 C 25.207031 -94.929688 26.90625 -95.828125 28.90625 -95.828125 C 30 -95.828125 31.195312 -95.425781 32.5 -94.625 C 34.1875 -93.53125 35.03125 -91.882812 35.03125 -89.6875 C 35.03125 -87.289062 33.734375 -84.992188 31.140625 -82.796875 C 29.941406 -81.804688 27.347656 -78.914062 23.359375 -74.125 C 9.785156 -58.445312 -0.394531 -44.367188 -7.1875 -31.890625 C -8.882812 -28.296875 -9.734375 -26.050781 -9.734375 -25.15625 C -9.734375 -24.457031 -9.429688 -24.109375 -8.828125 -24.109375 C -7.128906 -24.109375 -3.640625 -25.554688 1.640625 -28.453125 C 14.722656 -35.441406 31.296875 -46.519531 51.359375 -61.6875 C 57.742188 -66.476562 62.957031 -70.269531 67 -73.0625 C 71.050781 -75.863281 73.875 -77.660156 75.46875 -78.453125 C 78.65625 -80.148438 81.75 -81 84.75 -81 C 87.84375 -80.800781 90.1875 -79.15625 91.78125 -76.0625 C 92.476562 -74.5625 92.828125 -72.863281 92.828125 -70.96875 C 92.828125 -66.78125 90.382812 -61.789062 85.5 -56 C 73.625 -40.820312 67.6875 -31.238281 67.6875 -27.25 C 67.6875 -25.851562 68.679688 -25.054688 70.671875 -24.859375 C 72.972656 -25.054688 75.242188 -25.425781 77.484375 -25.96875 C 79.734375 -26.519531 81.957031 -27.144531 84.15625 -27.84375 C 94.53125 -31.539062 104.734375 -35.6875 114.765625 -40.28125 C 124.796875 -44.875 134.65625 -49.914062 144.34375 -55.40625 L 157.21875 -63.03125 C 157.820312 -63.332031 158.472656 -63.484375 159.171875 -63.484375 C 159.460938 -63.484375 159.757812 -63.4375 160.0625 -63.34375 C 160.5625 -63.132812 161.007812 -62.785156 161.40625 -62.296875 C 161.90625 -61.492188 162.15625 -60.894531 162.15625 -60.5 C 162.15625 -59.394531 161.660156 -58.492188 160.671875 -57.796875 L 147.34375 -50.015625 C 134.5625 -42.921875 122.78125 -36.90625 112 -31.96875 C 101.21875 -27.03125 91.382812 -23.210938 82.5 -20.515625 L 82.203125 -20.359375 C 77.910156 -18.867188 74.117188 -18.125 70.828125 -18.125 C 64.035156 -18.125 60.640625 -21.117188 60.640625 -27.109375 C 60.640625 -28.003906 60.738281 -28.898438 60.9375 -29.796875 C 61.132812 -30.691406 61.4375 -31.539062 61.84375 -32.34375 L 64.390625 -36.6875 C 66.378906 -39.675781 68.625 -43.269531 71.125 -47.46875 C 76.007812 -55.65625 78.453125 -61.195312 78.453125 -64.09375 C 78.453125 -64.882812 78.253906 -65.484375 77.859375 -65.890625 L 77.5625 -65.890625 C 76.363281 -65.890625 73.96875 -64.890625 70.375 -62.890625 C 66.082031 -60.691406 61.835938 -58.316406 57.640625 -55.765625 C 53.453125 -53.222656 49.257812 -50.609375 45.0625 -47.921875 C 36.28125 -42.222656 28.519531 -37.300781 21.78125 -33.15625 C 15.039062 -29.019531 9.328125 -25.65625 4.640625 -23.0625 L 3.59375 -22.453125 C -1.59375 -19.359375 -5.785156 -17.8125 -8.984375 -17.8125 Z M -8.984375 -17.8125 "/></g></g></g><g fill="#4f0202" fill-opacity="1"><g transform="translate(482.499685, 331.490829)"><g><path d="M -39.828125 8.234375 C -42.117188 8.234375 -43.265625 7.035156 -43.265625 4.640625 C -43.265625 2.742188 -41.519531 -0.945312 -38.03125 -6.4375 C -33.9375 -12.625 -27.992188 -21.132812 -20.203125 -31.96875 C -12.421875 -42.800781 -2.789062 -56.050781 8.6875 -71.71875 C 10.382812 -74.019531 11.832031 -75.941406 13.03125 -77.484375 C 14.226562 -79.035156 15.078125 -80.207031 15.578125 -81 C 19.671875 -87.488281 23.160156 -90.734375 26.046875 -90.734375 C 26.753906 -90.734375 27.554688 -90.535156 28.453125 -90.140625 C 31.046875 -89.242188 32.34375 -87.296875 32.34375 -84.296875 L 32.046875 -82.203125 C 31.742188 -80.703125 28.898438 -76.660156 23.515625 -70.078125 C 11.429688 -55.398438 1.847656 -44.171875 -5.234375 -36.390625 C -13.421875 -27.097656 -21.859375 -16.710938 -30.546875 -5.234375 C -29.742188 -5.835938 -28.019531 -7.335938 -25.375 -9.734375 C -22.726562 -12.128906 -19.160156 -15.421875 -14.671875 -19.609375 C -7.285156 -26.703125 0.867188 -34.265625 9.796875 -42.296875 C 18.734375 -50.335938 28.492188 -58.847656 39.078125 -67.828125 L 41.78125 -70.078125 C 47.5625 -75.765625 54.25 -80.253906 61.84375 -83.546875 C 63.539062 -84.046875 64.890625 -84.296875 65.890625 -84.296875 C 68.578125 -84.296875 70.722656 -83.25 72.328125 -81.15625 C 74.117188 -79.0625 75.015625 -76.515625 75.015625 -73.515625 C 75.015625 -71.523438 74.515625 -69.582031 73.515625 -67.6875 C 72.617188 -65.582031 72.171875 -63.984375 72.171875 -62.890625 C 72.171875 -60.992188 73.269531 -59.546875 75.46875 -58.546875 C 77.5625 -57.546875 81.753906 -57.046875 88.046875 -57.046875 C 92.734375 -57.046875 97.472656 -57.492188 102.265625 -58.390625 L 103.015625 -58.546875 C 104.816406 -58.847656 106.835938 -59.222656 109.078125 -59.671875 C 111.328125 -60.117188 113.847656 -60.59375 116.640625 -61.09375 L 117.390625 -61.234375 C 117.890625 -61.234375 118.539062 -60.988281 119.34375 -60.5 C 120.132812 -60 120.53125 -59.148438 120.53125 -57.953125 C 120.53125 -57.453125 120.28125 -56.800781 119.78125 -56 C 119.382812 -55.300781 118.585938 -54.953125 117.390625 -54.953125 L 113.953125 -54.796875 C 109.660156 -54.703125 104.816406 -54.253906 99.421875 -53.453125 C 97.023438 -53.054688 94.550781 -52.753906 92 -52.546875 C 89.457031 -52.347656 86.84375 -52.25 84.15625 -52.25 C 83.65625 -52.25 82.78125 -52.25 81.53125 -52.25 C 80.28125 -52.25 78.707031 -52.25 76.8125 -52.25 C 72.820312 -52.457031 69.078125 -54.65625 65.578125 -58.84375 C 64.378906 -60.84375 63.78125 -62.988281 63.78125 -65.28125 C 63.78125 -66.582031 63.984375 -67.832031 64.390625 -69.03125 C 64.984375 -71.019531 65.28125 -72.265625 65.28125 -72.765625 C 65.28125 -74.171875 64.582031 -74.875 63.1875 -74.875 C 60.394531 -74.875 54.707031 -71.878906 46.125 -65.890625 C 42.320312 -63.085938 38.203125 -59.914062 33.765625 -56.375 C 29.328125 -52.832031 24.609375 -48.816406 19.609375 -44.328125 C 15.117188 -40.429688 10.300781 -36.132812 5.15625 -31.4375 C 0.0195312 -26.75 -5.390625 -21.609375 -11.078125 -16.015625 C -15.367188 -11.722656 -19.710938 -7.53125 -24.109375 -3.4375 C -24.109375 -3.039062 -27.003906 -0.445312 -32.796875 4.34375 L -33.390625 4.796875 C -35.984375 7.085938 -38.128906 8.234375 -39.828125 8.234375 Z M -39.828125 8.234375 "/></g></g></g><g fill="#4f0202" fill-opacity="1"><g transform="translate(600.026748, 331.490829)"><g><path d="M 2.25 -12.578125 L 0.59375 -12.578125 C -8.6875 -12.578125 -14.523438 -15.722656 -16.921875 -22.015625 C -17.515625 -24.003906 -17.8125 -26 -17.8125 -28 C -17.8125 -33.488281 -15.316406 -39.773438 -10.328125 -46.859375 C 3.640625 -66.523438 19.113281 -81.101562 36.09375 -90.59375 C 41.875 -93.988281 48.210938 -95.785156 55.109375 -95.984375 C 58.597656 -95.984375 61.941406 -94.984375 65.140625 -92.984375 C 69.523438 -89.992188 71.71875 -86.300781 71.71875 -81.90625 C 71.71875 -78.113281 69.820312 -74.71875 66.03125 -71.71875 C 62.34375 -68.925781 58.347656 -66.679688 54.046875 -64.984375 C 42.472656 -60.390625 30.144531 -56.695312 17.0625 -53.90625 C 8.976562 -51.90625 4.289062 -50.859375 3 -50.765625 C -1.59375 -45.566406 -5.140625 -40.472656 -7.640625 -35.484375 C -9.335938 -32.492188 -10.1875 -29.648438 -10.1875 -26.953125 C -10.1875 -24.554688 -8.785156 -22.609375 -5.984375 -21.109375 C -4.785156 -20.710938 -3.535156 -20.363281 -2.234375 -20.0625 C -0.941406 -19.757812 0.347656 -19.609375 1.640625 -19.609375 C 6.835938 -19.609375 11.082031 -20.160156 14.375 -21.265625 C 20.164062 -22.359375 25.828125 -23.753906 31.359375 -25.453125 C 36.898438 -27.148438 42.421875 -29.144531 47.921875 -31.4375 C 53.203125 -33.632812 59.335938 -36.207031 66.328125 -39.15625 C 73.316406 -42.101562 81.15625 -45.421875 89.84375 -49.109375 L 119.78125 -61.84375 L 120.984375 -62.140625 C 121.378906 -62.140625 121.878906 -61.988281 122.484375 -61.6875 C 123.578125 -61.09375 124.125 -60.144531 124.125 -58.84375 C 124.125 -57.644531 123.476562 -56.695312 122.1875 -56 C 120.582031 -55.601562 104.457031 -48.765625 73.8125 -35.484375 C 67.53125 -32.691406 61.816406 -30.195312 56.671875 -28 C 51.535156 -25.800781 46.96875 -23.90625 42.96875 -22.3125 C 28.894531 -16.414062 15.320312 -13.171875 2.25 -12.578125 Z M 10.625 -58.390625 C 24.601562 -61.285156 37.734375 -65.378906 50.015625 -70.671875 C 52.003906 -71.472656 53.671875 -72.195312 55.015625 -72.84375 C 56.367188 -73.488281 57.445312 -74.0625 58.25 -74.5625 C 60.644531 -76.0625 61.84375 -77.859375 61.84375 -79.953125 C 61.84375 -82.753906 59.84375 -84.15625 55.84375 -84.15625 C 53.945312 -84.15625 52.148438 -83.90625 50.453125 -83.40625 C 44.460938 -81.601562 38.625 -78.957031 32.9375 -75.46875 C 28.644531 -72.769531 24.648438 -70 20.953125 -67.15625 C 17.265625 -64.3125 13.820312 -61.390625 10.625 -58.390625 Z M 10.625 -58.390625 "/></g></g></g></svg>