<?xml version="1.0" ?>

<!DOCTYPE svg  PUBLIC '-//W3C//DTD SVG 1.1//EN'  'http://www.w3.org/Graphics/SVG/1.1/DTD/svg11.dtd'>

<!-- Uploaded to: SVG Repo, www.svgrepo.com, Generator: SVG Repo Mixer Tools -->
<svg width="800px" height="800px" viewBox="0 0 24 24" fill="none" xmlns="http://www.w3.org/2000/svg">

<path fill-rule="evenodd" clip-rule="evenodd" d="M10.673 18.772c-0.451 0-0.872-0.168-1.183-0.473c-0.394-0.386-0.563-0.974-0.44-1.534c0.117-0.531 0.467-0.937 0.962-1.114c0.677-0.241 1.42-0.053 1.87 0.463c0.32 0.367 0.464 0.861 0.397 1.358c-0.103 0.761-0.83 1.3-1.606 1.3zM10.623 16.169c-0.118 0-0.238 0.021-0.357 0.064c-0.336 0.12-0.446 0.407-0.481 0.568c-0.068 0.31 0.021 0.63 0.232 0.837c0.17 0.167 0.404 0.258 0.658 0.258c0.384 0 0.804-0.224 0.862-0.651c0.039-0.286-0.039-0.556-0.218-0.762c-0.179-0.206-0.435-0.314-0.696-0.314z" fill="#000000"/>

<path fill-rule="evenodd" clip-rule="evenodd" d="M15.626 18.772c-0.451 0-0.872-0.168-1.183-0.473c-0.394-0.386-0.563-0.974-0.44-1.534c0.117-0.531 0.467-0.937 0.962-1.114c0.676-0.242 1.419-0.053 1.87 0.463c0.32 0.367 0.464 0.861 0.397 1.358c-0.103 0.761-0.83 1.3-1.606 1.3zM15.575 16.169c-0.118 0-0.238 0.021-0.357 0.064c-0.336 0.12-0.446 0.407-0.481 0.568c-0.068 0.31 0.021 0.63 0.232 0.837c0.17 0.167 0.404 0.258 0.658 0.258c0.384 0 0.804-0.224 0.862-0.651c0.039-0.286-0.039-0.556-0.218-0.762c-0.179-0.206-0.435-0.314-0.696-0.314z" fill="#000000"/>

<path fill-rule="evenodd" clip-rule="evenodd" d="M14.22 14.936c-0.401 0-0.798-0.01-1.161-0.019l-0.532-0.011c-1.058-0.014-2.829-0.038-3.496-0.953c-0.344-0.473-0.61-1.393-0.679-2.343c-0.035-0.471-0.046-0.979-0.056-1.469c-0.039-1.777-0.081-3.615-1.189-3.931c-0.452-0.129-0.823-0.113-1.384-0.089l-0.092 0.004c-0.2 0.009-0.382-0.152-0.391-0.359c-0.009-0.207 0.152-0.382 0.359-0.391l0.092-0.004c0.588-0.026 1.054-0.046 1.622 0.117c0.873 0.249 1.294 0.966 1.505 1.89c0.147-0.002 0.386-0.005 0.69-0.009c1.528-0.021 4.707-0.063 5.958-0.033c0.188 0.004 0.371 0.006 0.549 0.008c1.333 0.012 2.712 0.025 2.741 1.519c0.024 1.261-0.404 2.768-0.536 3.199c-0.035 0.116-0.068 0.229-0.101 0.34c-0.152 0.521-0.295 1.012-0.59 1.468c-0.333 0.515-0.879 0.847-1.579 0.961c-0.603 0.098-1.216 0.122-1.73 0.122zM8.945 8.128c0.073 0.632 0.089 1.319 0.104 1.997c0.011 0.481 0.022 0.979 0.055 1.432c0.058 0.796 0.279 1.6 0.538 1.956c0.446 0.611 2.102 0.633 2.9 0.644l0.541 0.011c0.879 0.022 1.972 0.05 2.752-0.077c0.485-0.079 0.855-0.296 1.07-0.628c0.235-0.363 0.357-0.783 0.5-1.27c0.033-0.114 0.067-0.23 0.103-0.349c0.255-0.835 0.521-2.052 0.503-2.966c-0.013-0.675-0.413-0.769-1.997-0.783c-0.181-0.002-0.368-0.003-0.559-0.008c-1.237-0.029-4.408 0.014-5.931 0.033c-0.208 0.003-0.392 0.005-0.579 0.008z" fill="#000000"/>

</svg>